<mxfile host="app.diagrams.net" agent="Mozilla/5.0 (Windows NT 10.0; Win64; x64) AppleWebKit/537.36 (KHTML, like Gecko) Chrome/132.0.0.0 Safari/537.36" version="26.0.10">
  <diagram name="Página-1" id="9XNIr25TfZ4vL8hur0vm">
    <mxGraphModel dx="1434" dy="746" grid="1" gridSize="10" guides="1" tooltips="1" connect="1" arrows="1" fold="1" page="1" pageScale="1" pageWidth="827" pageHeight="1169" math="0" shadow="0">
      <root>
        <mxCell id="0" />
        <mxCell id="1" parent="0" />
        <mxCell id="4fs_IT_UTH7WoIQsUZHY-134" value="" style="rounded=0;whiteSpace=wrap;html=1;fillColor=default;" parent="1" vertex="1">
          <mxGeometry y="2025" width="1240" height="280" as="geometry" />
        </mxCell>
        <mxCell id="4fs_IT_UTH7WoIQsUZHY-98" value="" style="rounded=0;whiteSpace=wrap;html=1;fillColor=default;" parent="1" vertex="1">
          <mxGeometry y="1410" width="1240" height="280" as="geometry" />
        </mxCell>
        <mxCell id="4fs_IT_UTH7WoIQsUZHY-85" value="" style="rounded=0;whiteSpace=wrap;html=1;fillColor=default;" parent="1" vertex="1">
          <mxGeometry y="1040" width="1240" height="350" as="geometry" />
        </mxCell>
        <mxCell id="4fs_IT_UTH7WoIQsUZHY-57" value="" style="rounded=0;whiteSpace=wrap;html=1;fillColor=default;" parent="1" vertex="1">
          <mxGeometry y="650" width="1440" height="350" as="geometry" />
        </mxCell>
        <mxCell id="4fs_IT_UTH7WoIQsUZHY-21" value="" style="rounded=0;whiteSpace=wrap;html=1;fillColor=default;" parent="1" vertex="1">
          <mxGeometry y="285" width="1310" height="350" as="geometry" />
        </mxCell>
        <mxCell id="4fs_IT_UTH7WoIQsUZHY-1" value="EVENTO" style="whiteSpace=wrap;html=1;aspect=fixed;fillColor=#ffe6cc;strokeColor=#d79b00;" parent="1" vertex="1">
          <mxGeometry y="200" width="80" height="80" as="geometry" />
        </mxCell>
        <mxCell id="4fs_IT_UTH7WoIQsUZHY-2" value="COMANDO" style="whiteSpace=wrap;html=1;aspect=fixed;fillColor=#dae8fc;strokeColor=#6c8ebf;" parent="1" vertex="1">
          <mxGeometry x="90" y="200" width="80" height="80" as="geometry" />
        </mxCell>
        <mxCell id="4fs_IT_UTH7WoIQsUZHY-3" value="ATOR" style="whiteSpace=wrap;html=1;aspect=fixed;fillColor=#fff2cc;strokeColor=#d6b656;" parent="1" vertex="1">
          <mxGeometry x="180" y="200" width="80" height="80" as="geometry" />
        </mxCell>
        <mxCell id="4fs_IT_UTH7WoIQsUZHY-4" value="Usuário" style="whiteSpace=wrap;html=1;aspect=fixed;sketch=1;curveFitting=1;jiggle=2;fillColor=#d5e8d4;strokeColor=#82b366;" parent="1" vertex="1">
          <mxGeometry x="10" y="350" width="100" height="100" as="geometry" />
        </mxCell>
        <mxCell id="4fs_IT_UTH7WoIQsUZHY-5" value="Preenche informações do veículo" style="whiteSpace=wrap;html=1;aspect=fixed;fillColor=#dae8fc;strokeColor=#6c8ebf;" parent="1" vertex="1">
          <mxGeometry x="180" y="410" width="100" height="100" as="geometry" />
        </mxCell>
        <mxCell id="4fs_IT_UTH7WoIQsUZHY-6" value="" style="endArrow=classic;html=1;rounded=0;" parent="1" edge="1">
          <mxGeometry width="50" height="50" relative="1" as="geometry">
            <mxPoint x="120" y="420" as="sourcePoint" />
            <mxPoint x="170" y="450" as="targetPoint" />
          </mxGeometry>
        </mxCell>
        <mxCell id="4fs_IT_UTH7WoIQsUZHY-15" style="edgeStyle=orthogonalEdgeStyle;rounded=0;orthogonalLoop=1;jettySize=auto;html=1;entryX=0;entryY=0.5;entryDx=0;entryDy=0;" parent="1" target="4fs_IT_UTH7WoIQsUZHY-12" edge="1">
          <mxGeometry relative="1" as="geometry">
            <mxPoint x="610" y="460" as="sourcePoint" />
          </mxGeometry>
        </mxCell>
        <mxCell id="4fs_IT_UTH7WoIQsUZHY-39" style="edgeStyle=orthogonalEdgeStyle;rounded=0;orthogonalLoop=1;jettySize=auto;html=1;entryX=0;entryY=0.5;entryDx=0;entryDy=0;" parent="1" source="4fs_IT_UTH7WoIQsUZHY-7" target="4fs_IT_UTH7WoIQsUZHY-36" edge="1">
          <mxGeometry relative="1" as="geometry" />
        </mxCell>
        <mxCell id="4fs_IT_UTH7WoIQsUZHY-7" value="Informações Preenchidas" style="whiteSpace=wrap;html=1;aspect=fixed;fillColor=#ffe6cc;strokeColor=#d79b00;" parent="1" vertex="1">
          <mxGeometry x="350" y="410" width="100" height="100" as="geometry" />
        </mxCell>
        <mxCell id="4fs_IT_UTH7WoIQsUZHY-8" value="" style="endArrow=classic;html=1;rounded=0;entryX=0;entryY=0.5;entryDx=0;entryDy=0;" parent="1" target="4fs_IT_UTH7WoIQsUZHY-7" edge="1">
          <mxGeometry width="50" height="50" relative="1" as="geometry">
            <mxPoint x="280" y="460" as="sourcePoint" />
            <mxPoint x="350" y="500" as="targetPoint" />
          </mxGeometry>
        </mxCell>
        <mxCell id="4fs_IT_UTH7WoIQsUZHY-16" style="edgeStyle=orthogonalEdgeStyle;rounded=0;orthogonalLoop=1;jettySize=auto;html=1;entryX=0;entryY=0.5;entryDx=0;entryDy=0;" parent="1" source="4fs_IT_UTH7WoIQsUZHY-9" target="4fs_IT_UTH7WoIQsUZHY-17" edge="1">
          <mxGeometry relative="1" as="geometry">
            <mxPoint x="690" y="360" as="targetPoint" />
          </mxGeometry>
        </mxCell>
        <mxCell id="4fs_IT_UTH7WoIQsUZHY-9" value="Informações Válidas" style="whiteSpace=wrap;html=1;aspect=fixed;fillColor=#e1d5e7;strokeColor=#9673a6;" parent="1" vertex="1">
          <mxGeometry x="690" y="310" width="100" height="100" as="geometry" />
        </mxCell>
        <mxCell id="4fs_IT_UTH7WoIQsUZHY-24" style="edgeStyle=orthogonalEdgeStyle;rounded=0;orthogonalLoop=1;jettySize=auto;html=1;" parent="1" source="4fs_IT_UTH7WoIQsUZHY-12" target="4fs_IT_UTH7WoIQsUZHY-22" edge="1">
          <mxGeometry relative="1" as="geometry" />
        </mxCell>
        <mxCell id="4fs_IT_UTH7WoIQsUZHY-12" value="Informações Inválidas" style="whiteSpace=wrap;html=1;aspect=fixed;fillColor=#e1d5e7;strokeColor=#9673a6;" parent="1" vertex="1">
          <mxGeometry x="690" y="500" width="100" height="100" as="geometry" />
        </mxCell>
        <mxCell id="4fs_IT_UTH7WoIQsUZHY-19" style="edgeStyle=orthogonalEdgeStyle;rounded=0;orthogonalLoop=1;jettySize=auto;html=1;entryX=0;entryY=0.5;entryDx=0;entryDy=0;" parent="1" source="4fs_IT_UTH7WoIQsUZHY-17" target="4fs_IT_UTH7WoIQsUZHY-18" edge="1">
          <mxGeometry relative="1" as="geometry" />
        </mxCell>
        <mxCell id="4fs_IT_UTH7WoIQsUZHY-17" value="Armazenar Informações do Veículo" style="whiteSpace=wrap;html=1;aspect=fixed;fillColor=#dae8fc;strokeColor=#6c8ebf;" parent="1" vertex="1">
          <mxGeometry x="870" y="310" width="100" height="100" as="geometry" />
        </mxCell>
        <mxCell id="4fs_IT_UTH7WoIQsUZHY-18" value="Informações do Veículo armazenadas" style="whiteSpace=wrap;html=1;aspect=fixed;fillColor=#ffe6cc;strokeColor=#d79b00;" parent="1" vertex="1">
          <mxGeometry x="1050" y="310" width="100" height="100" as="geometry" />
        </mxCell>
        <mxCell id="4fs_IT_UTH7WoIQsUZHY-20" value="&lt;b&gt;&lt;font style=&quot;font-size: 16px;&quot;&gt;Cadastrar um Veículo&lt;/font&gt;&lt;/b&gt;" style="text;html=1;align=center;verticalAlign=middle;whiteSpace=wrap;rounded=0;" parent="1" vertex="1">
          <mxGeometry y="280" width="190" height="50" as="geometry" />
        </mxCell>
        <mxCell id="4fs_IT_UTH7WoIQsUZHY-22" value="Falha ao armazenar informações do veículo" style="whiteSpace=wrap;html=1;aspect=fixed;fillColor=#ffe6cc;strokeColor=#d79b00;" parent="1" vertex="1">
          <mxGeometry x="870" y="500" width="100" height="100" as="geometry" />
        </mxCell>
        <mxCell id="4fs_IT_UTH7WoIQsUZHY-25" value="VENDEDOR" style="whiteSpace=wrap;html=1;aspect=fixed;fillColor=#fff2cc;strokeColor=#d6b656;" parent="1" vertex="1">
          <mxGeometry x="10" y="420" width="80" height="80" as="geometry" />
        </mxCell>
        <mxCell id="4fs_IT_UTH7WoIQsUZHY-26" value="Usuário" style="whiteSpace=wrap;html=1;aspect=fixed;sketch=1;curveFitting=1;jiggle=2;fillColor=#d5e8d4;strokeColor=#82b366;" parent="1" vertex="1">
          <mxGeometry x="10" y="760" width="100" height="100" as="geometry" />
        </mxCell>
        <mxCell id="4fs_IT_UTH7WoIQsUZHY-27" value="Selecionar veículo a ser editado" style="whiteSpace=wrap;html=1;aspect=fixed;fillColor=#dae8fc;strokeColor=#6c8ebf;" parent="1" vertex="1">
          <mxGeometry x="180" y="810" width="100" height="100" as="geometry" />
        </mxCell>
        <mxCell id="4fs_IT_UTH7WoIQsUZHY-28" value="" style="endArrow=classic;html=1;rounded=0;" parent="1" edge="1">
          <mxGeometry width="50" height="50" relative="1" as="geometry">
            <mxPoint x="120" y="830" as="sourcePoint" />
            <mxPoint x="170" y="860" as="targetPoint" />
          </mxGeometry>
        </mxCell>
        <mxCell id="4fs_IT_UTH7WoIQsUZHY-29" value="VENDEDOR" style="whiteSpace=wrap;html=1;aspect=fixed;fillColor=#fff2cc;strokeColor=#d6b656;" parent="1" vertex="1">
          <mxGeometry x="10" y="830" width="80" height="80" as="geometry" />
        </mxCell>
        <mxCell id="4fs_IT_UTH7WoIQsUZHY-33" style="edgeStyle=orthogonalEdgeStyle;rounded=0;orthogonalLoop=1;jettySize=auto;html=1;entryX=0;entryY=0.5;entryDx=0;entryDy=0;" parent="1" source="4fs_IT_UTH7WoIQsUZHY-30" target="4fs_IT_UTH7WoIQsUZHY-32" edge="1">
          <mxGeometry relative="1" as="geometry" />
        </mxCell>
        <mxCell id="4fs_IT_UTH7WoIQsUZHY-30" value="Veiculo Selecionado" style="whiteSpace=wrap;html=1;aspect=fixed;fillColor=#ffe6cc;strokeColor=#d79b00;" parent="1" vertex="1">
          <mxGeometry x="355" y="810" width="90" height="90" as="geometry" />
        </mxCell>
        <mxCell id="4fs_IT_UTH7WoIQsUZHY-31" value="" style="endArrow=classic;html=1;rounded=0;entryX=0;entryY=0.5;entryDx=0;entryDy=0;" parent="1" target="4fs_IT_UTH7WoIQsUZHY-30" edge="1">
          <mxGeometry width="50" height="50" relative="1" as="geometry">
            <mxPoint x="280" y="855" as="sourcePoint" />
            <mxPoint x="330" y="885" as="targetPoint" />
          </mxGeometry>
        </mxCell>
        <mxCell id="4fs_IT_UTH7WoIQsUZHY-44" style="edgeStyle=orthogonalEdgeStyle;rounded=0;orthogonalLoop=1;jettySize=auto;html=1;entryX=0;entryY=0.5;entryDx=0;entryDy=0;" parent="1" source="4fs_IT_UTH7WoIQsUZHY-32" target="4fs_IT_UTH7WoIQsUZHY-43" edge="1">
          <mxGeometry relative="1" as="geometry" />
        </mxCell>
        <mxCell id="4fs_IT_UTH7WoIQsUZHY-32" value="Atualizar informações" style="whiteSpace=wrap;html=1;aspect=fixed;fillColor=#dae8fc;strokeColor=#6c8ebf;" parent="1" vertex="1">
          <mxGeometry x="500" y="810" width="90" height="90" as="geometry" />
        </mxCell>
        <mxCell id="4fs_IT_UTH7WoIQsUZHY-36" value="Validar Informações" style="whiteSpace=wrap;html=1;aspect=fixed;fillColor=#dae8fc;strokeColor=#6c8ebf;" parent="1" vertex="1">
          <mxGeometry x="510" y="410" width="100" height="100" as="geometry" />
        </mxCell>
        <mxCell id="4fs_IT_UTH7WoIQsUZHY-40" style="edgeStyle=orthogonalEdgeStyle;rounded=0;orthogonalLoop=1;jettySize=auto;html=1;entryX=-0.01;entryY=0.59;entryDx=0;entryDy=0;entryPerimeter=0;" parent="1" target="4fs_IT_UTH7WoIQsUZHY-9" edge="1">
          <mxGeometry relative="1" as="geometry">
            <mxPoint x="610" y="460" as="sourcePoint" />
          </mxGeometry>
        </mxCell>
        <mxCell id="4fs_IT_UTH7WoIQsUZHY-46" style="edgeStyle=orthogonalEdgeStyle;rounded=0;orthogonalLoop=1;jettySize=auto;html=1;entryX=0;entryY=0.5;entryDx=0;entryDy=0;" parent="1" source="4fs_IT_UTH7WoIQsUZHY-43" target="4fs_IT_UTH7WoIQsUZHY-45" edge="1">
          <mxGeometry relative="1" as="geometry" />
        </mxCell>
        <mxCell id="4fs_IT_UTH7WoIQsUZHY-43" value="Informações atualizadas" style="whiteSpace=wrap;html=1;aspect=fixed;fillColor=#ffe6cc;strokeColor=#d79b00;" parent="1" vertex="1">
          <mxGeometry x="650" y="810" width="90" height="90" as="geometry" />
        </mxCell>
        <mxCell id="4fs_IT_UTH7WoIQsUZHY-45" value="Validar informações atualizadas" style="whiteSpace=wrap;html=1;aspect=fixed;fillColor=#dae8fc;strokeColor=#6c8ebf;" parent="1" vertex="1">
          <mxGeometry x="800" y="810" width="90" height="90" as="geometry" />
        </mxCell>
        <mxCell id="4fs_IT_UTH7WoIQsUZHY-47" style="edgeStyle=orthogonalEdgeStyle;rounded=0;orthogonalLoop=1;jettySize=auto;html=1;entryX=0;entryY=0.5;entryDx=0;entryDy=0;" parent="1" target="4fs_IT_UTH7WoIQsUZHY-53" edge="1">
          <mxGeometry relative="1" as="geometry">
            <mxPoint x="890" y="860" as="sourcePoint" />
            <mxPoint x="970" y="950" as="targetPoint" />
          </mxGeometry>
        </mxCell>
        <mxCell id="4fs_IT_UTH7WoIQsUZHY-54" style="edgeStyle=orthogonalEdgeStyle;rounded=0;orthogonalLoop=1;jettySize=auto;html=1;entryX=0;entryY=0.5;entryDx=0;entryDy=0;" parent="1" source="4fs_IT_UTH7WoIQsUZHY-48" target="4fs_IT_UTH7WoIQsUZHY-49" edge="1">
          <mxGeometry relative="1" as="geometry" />
        </mxCell>
        <mxCell id="4fs_IT_UTH7WoIQsUZHY-48" value="Informações Válidas" style="whiteSpace=wrap;html=1;aspect=fixed;fillColor=#e1d5e7;strokeColor=#9673a6;" parent="1" vertex="1">
          <mxGeometry x="1050" y="710" width="100" height="100" as="geometry" />
        </mxCell>
        <mxCell id="4fs_IT_UTH7WoIQsUZHY-55" style="edgeStyle=orthogonalEdgeStyle;rounded=0;orthogonalLoop=1;jettySize=auto;html=1;entryX=0;entryY=0.5;entryDx=0;entryDy=0;" parent="1" source="4fs_IT_UTH7WoIQsUZHY-49" target="4fs_IT_UTH7WoIQsUZHY-50" edge="1">
          <mxGeometry relative="1" as="geometry" />
        </mxCell>
        <mxCell id="4fs_IT_UTH7WoIQsUZHY-49" value="Armazenar Informações atualizadas do Veículo" style="whiteSpace=wrap;html=1;aspect=fixed;fillColor=#dae8fc;strokeColor=#6c8ebf;" parent="1" vertex="1">
          <mxGeometry x="1191" y="710" width="100" height="100" as="geometry" />
        </mxCell>
        <mxCell id="4fs_IT_UTH7WoIQsUZHY-50" value="Informações atualizadas do Veículo armazenada" style="whiteSpace=wrap;html=1;aspect=fixed;fillColor=#ffe6cc;strokeColor=#d79b00;" parent="1" vertex="1">
          <mxGeometry x="1330" y="710" width="100" height="100" as="geometry" />
        </mxCell>
        <mxCell id="4fs_IT_UTH7WoIQsUZHY-51" value="Falha ao atualizar informações do veículo" style="whiteSpace=wrap;html=1;aspect=fixed;fillColor=#ffe6cc;strokeColor=#d79b00;" parent="1" vertex="1">
          <mxGeometry x="1191" y="890" width="100" height="100" as="geometry" />
        </mxCell>
        <mxCell id="4fs_IT_UTH7WoIQsUZHY-52" style="edgeStyle=orthogonalEdgeStyle;rounded=0;orthogonalLoop=1;jettySize=auto;html=1;entryX=-0.01;entryY=0.59;entryDx=0;entryDy=0;entryPerimeter=0;" parent="1" target="4fs_IT_UTH7WoIQsUZHY-48" edge="1">
          <mxGeometry relative="1" as="geometry">
            <mxPoint x="890" y="860" as="sourcePoint" />
          </mxGeometry>
        </mxCell>
        <mxCell id="4fs_IT_UTH7WoIQsUZHY-56" style="edgeStyle=orthogonalEdgeStyle;rounded=0;orthogonalLoop=1;jettySize=auto;html=1;entryX=0;entryY=0.5;entryDx=0;entryDy=0;" parent="1" source="4fs_IT_UTH7WoIQsUZHY-53" target="4fs_IT_UTH7WoIQsUZHY-51" edge="1">
          <mxGeometry relative="1" as="geometry" />
        </mxCell>
        <mxCell id="4fs_IT_UTH7WoIQsUZHY-53" value="Informações Inválidas" style="whiteSpace=wrap;html=1;aspect=fixed;fillColor=#e1d5e7;strokeColor=#9673a6;" parent="1" vertex="1">
          <mxGeometry x="1050" y="890" width="100" height="100" as="geometry" />
        </mxCell>
        <mxCell id="4fs_IT_UTH7WoIQsUZHY-58" value="&lt;b&gt;&lt;font style=&quot;font-size: 16px;&quot;&gt;Editar dados de um veículo&lt;/font&gt;&lt;/b&gt;" style="text;html=1;align=center;verticalAlign=middle;whiteSpace=wrap;rounded=0;" parent="1" vertex="1">
          <mxGeometry x="5" y="670" width="235" height="50" as="geometry" />
        </mxCell>
        <mxCell id="4fs_IT_UTH7WoIQsUZHY-59" value="Usuário" style="whiteSpace=wrap;html=1;aspect=fixed;sketch=1;curveFitting=1;jiggle=2;fillColor=#d5e8d4;strokeColor=#82b366;" parent="1" vertex="1">
          <mxGeometry x="10" y="1120" width="100" height="100" as="geometry" />
        </mxCell>
        <mxCell id="4fs_IT_UTH7WoIQsUZHY-60" value="COMPRADOR" style="whiteSpace=wrap;html=1;aspect=fixed;fillColor=#fff2cc;strokeColor=#d6b656;" parent="1" vertex="1">
          <mxGeometry x="10" y="1190" width="80" height="80" as="geometry" />
        </mxCell>
        <mxCell id="4fs_IT_UTH7WoIQsUZHY-65" style="edgeStyle=orthogonalEdgeStyle;rounded=0;orthogonalLoop=1;jettySize=auto;html=1;entryX=0;entryY=0.5;entryDx=0;entryDy=0;" parent="1" source="4fs_IT_UTH7WoIQsUZHY-61" target="4fs_IT_UTH7WoIQsUZHY-63" edge="1">
          <mxGeometry relative="1" as="geometry" />
        </mxCell>
        <mxCell id="4fs_IT_UTH7WoIQsUZHY-61" value="Selecionar veículo para compra" style="whiteSpace=wrap;html=1;aspect=fixed;fillColor=#dae8fc;strokeColor=#6c8ebf;" parent="1" vertex="1">
          <mxGeometry x="170" y="1169" width="80" height="80" as="geometry" />
        </mxCell>
        <mxCell id="4fs_IT_UTH7WoIQsUZHY-62" value="" style="endArrow=classic;html=1;rounded=0;entryX=0;entryY=0.5;entryDx=0;entryDy=0;" parent="1" target="4fs_IT_UTH7WoIQsUZHY-61" edge="1">
          <mxGeometry width="50" height="50" relative="1" as="geometry">
            <mxPoint x="110" y="1169" as="sourcePoint" />
            <mxPoint x="160" y="1199" as="targetPoint" />
          </mxGeometry>
        </mxCell>
        <mxCell id="4fs_IT_UTH7WoIQsUZHY-67" style="edgeStyle=orthogonalEdgeStyle;rounded=0;orthogonalLoop=1;jettySize=auto;html=1;entryX=0;entryY=0.5;entryDx=0;entryDy=0;" parent="1" source="4fs_IT_UTH7WoIQsUZHY-63" target="4fs_IT_UTH7WoIQsUZHY-66" edge="1">
          <mxGeometry relative="1" as="geometry" />
        </mxCell>
        <mxCell id="4fs_IT_UTH7WoIQsUZHY-63" value="Veículo selcionado" style="whiteSpace=wrap;html=1;aspect=fixed;fillColor=#ffe6cc;strokeColor=#d79b00;" parent="1" vertex="1">
          <mxGeometry x="310" y="1169" width="80" height="80" as="geometry" />
        </mxCell>
        <mxCell id="4fs_IT_UTH7WoIQsUZHY-72" style="edgeStyle=orthogonalEdgeStyle;rounded=0;orthogonalLoop=1;jettySize=auto;html=1;entryX=0;entryY=0.5;entryDx=0;entryDy=0;" parent="1" source="4fs_IT_UTH7WoIQsUZHY-66" target="4fs_IT_UTH7WoIQsUZHY-68" edge="1">
          <mxGeometry relative="1" as="geometry" />
        </mxCell>
        <mxCell id="4fs_IT_UTH7WoIQsUZHY-66" value="Confirmar compra" style="whiteSpace=wrap;html=1;aspect=fixed;fillColor=#dae8fc;strokeColor=#6c8ebf;" parent="1" vertex="1">
          <mxGeometry x="450" y="1168" width="81" height="81" as="geometry" />
        </mxCell>
        <mxCell id="4fs_IT_UTH7WoIQsUZHY-76" style="edgeStyle=orthogonalEdgeStyle;rounded=0;orthogonalLoop=1;jettySize=auto;html=1;" parent="1" source="4fs_IT_UTH7WoIQsUZHY-68" target="4fs_IT_UTH7WoIQsUZHY-75" edge="1">
          <mxGeometry relative="1" as="geometry" />
        </mxCell>
        <mxCell id="4fs_IT_UTH7WoIQsUZHY-68" value="Compra Confirmada" style="whiteSpace=wrap;html=1;aspect=fixed;fillColor=#e1d5e7;strokeColor=#9673a6;" parent="1" vertex="1">
          <mxGeometry x="590" y="1100" width="80" height="80" as="geometry" />
        </mxCell>
        <mxCell id="4fs_IT_UTH7WoIQsUZHY-84" style="edgeStyle=orthogonalEdgeStyle;rounded=0;orthogonalLoop=1;jettySize=auto;html=1;entryX=0;entryY=0.5;entryDx=0;entryDy=0;" parent="1" source="4fs_IT_UTH7WoIQsUZHY-69" target="4fs_IT_UTH7WoIQsUZHY-83" edge="1">
          <mxGeometry relative="1" as="geometry" />
        </mxCell>
        <mxCell id="4fs_IT_UTH7WoIQsUZHY-69" value="Compra não confirmada" style="whiteSpace=wrap;html=1;aspect=fixed;fillColor=#e1d5e7;strokeColor=#9673a6;" parent="1" vertex="1">
          <mxGeometry x="590" y="1230" width="80" height="80" as="geometry" />
        </mxCell>
        <mxCell id="4fs_IT_UTH7WoIQsUZHY-73" style="edgeStyle=orthogonalEdgeStyle;rounded=0;orthogonalLoop=1;jettySize=auto;html=1;entryX=0;entryY=0.5;entryDx=0;entryDy=0;" parent="1" target="4fs_IT_UTH7WoIQsUZHY-69" edge="1">
          <mxGeometry relative="1" as="geometry">
            <mxPoint x="531" y="1209" as="sourcePoint" />
            <mxPoint x="580" y="1300" as="targetPoint" />
          </mxGeometry>
        </mxCell>
        <mxCell id="4fs_IT_UTH7WoIQsUZHY-78" style="edgeStyle=orthogonalEdgeStyle;rounded=0;orthogonalLoop=1;jettySize=auto;html=1;entryX=0;entryY=0.5;entryDx=0;entryDy=0;" parent="1" source="4fs_IT_UTH7WoIQsUZHY-75" target="4fs_IT_UTH7WoIQsUZHY-77" edge="1">
          <mxGeometry relative="1" as="geometry" />
        </mxCell>
        <mxCell id="4fs_IT_UTH7WoIQsUZHY-75" value="Validar Transação" style="whiteSpace=wrap;html=1;aspect=fixed;fillColor=#dae8fc;strokeColor=#6c8ebf;" parent="1" vertex="1">
          <mxGeometry x="750" y="1100" width="81" height="81" as="geometry" />
        </mxCell>
        <mxCell id="4fs_IT_UTH7WoIQsUZHY-80" style="edgeStyle=orthogonalEdgeStyle;rounded=0;orthogonalLoop=1;jettySize=auto;html=1;entryX=0;entryY=0.5;entryDx=0;entryDy=0;" parent="1" source="4fs_IT_UTH7WoIQsUZHY-77" target="4fs_IT_UTH7WoIQsUZHY-79" edge="1">
          <mxGeometry relative="1" as="geometry" />
        </mxCell>
        <mxCell id="4fs_IT_UTH7WoIQsUZHY-77" value="Transação validada" style="whiteSpace=wrap;html=1;aspect=fixed;fillColor=#ffe6cc;strokeColor=#d79b00;" parent="1" vertex="1">
          <mxGeometry x="880" y="1101" width="80" height="80" as="geometry" />
        </mxCell>
        <mxCell id="4fs_IT_UTH7WoIQsUZHY-82" style="edgeStyle=orthogonalEdgeStyle;rounded=0;orthogonalLoop=1;jettySize=auto;html=1;entryX=0;entryY=0.5;entryDx=0;entryDy=0;" parent="1" source="4fs_IT_UTH7WoIQsUZHY-79" target="4fs_IT_UTH7WoIQsUZHY-81" edge="1">
          <mxGeometry relative="1" as="geometry" />
        </mxCell>
        <mxCell id="4fs_IT_UTH7WoIQsUZHY-79" value="Atualizar status do veículo para vendido" style="whiteSpace=wrap;html=1;aspect=fixed;fillColor=#dae8fc;strokeColor=#6c8ebf;" parent="1" vertex="1">
          <mxGeometry x="1010" y="1101" width="81" height="81" as="geometry" />
        </mxCell>
        <mxCell id="4fs_IT_UTH7WoIQsUZHY-81" value="Status do veículo atualizado para vendido" style="whiteSpace=wrap;html=1;aspect=fixed;fillColor=#ffe6cc;strokeColor=#d79b00;" parent="1" vertex="1">
          <mxGeometry x="1150" y="1102" width="80" height="80" as="geometry" />
        </mxCell>
        <mxCell id="4fs_IT_UTH7WoIQsUZHY-83" value="Falha ao realizar venda" style="whiteSpace=wrap;html=1;aspect=fixed;fillColor=#ffe6cc;strokeColor=#d79b00;" parent="1" vertex="1">
          <mxGeometry x="750" y="1230" width="80" height="80" as="geometry" />
        </mxCell>
        <mxCell id="4fs_IT_UTH7WoIQsUZHY-86" value="&lt;b&gt;&lt;font style=&quot;font-size: 16px;&quot;&gt;Efetuar Venda de um veículo&lt;/font&gt;&lt;/b&gt;" style="text;html=1;align=center;verticalAlign=middle;whiteSpace=wrap;rounded=0;" parent="1" vertex="1">
          <mxGeometry x="5" y="1040" width="235" height="50" as="geometry" />
        </mxCell>
        <mxCell id="4fs_IT_UTH7WoIQsUZHY-87" value="Usuário" style="whiteSpace=wrap;html=1;aspect=fixed;sketch=1;curveFitting=1;jiggle=2;fillColor=#d5e8d4;strokeColor=#82b366;" parent="1" vertex="1">
          <mxGeometry x="5" y="1475" width="100" height="100" as="geometry" />
        </mxCell>
        <mxCell id="4fs_IT_UTH7WoIQsUZHY-91" style="edgeStyle=orthogonalEdgeStyle;rounded=0;orthogonalLoop=1;jettySize=auto;html=1;entryX=0;entryY=0.5;entryDx=0;entryDy=0;" parent="1" source="4fs_IT_UTH7WoIQsUZHY-88" target="4fs_IT_UTH7WoIQsUZHY-90" edge="1">
          <mxGeometry relative="1" as="geometry" />
        </mxCell>
        <mxCell id="4fs_IT_UTH7WoIQsUZHY-88" value="Solicitação de listagem de veículos a venda" style="whiteSpace=wrap;html=1;aspect=fixed;fillColor=#ffe6cc;strokeColor=#d79b00;" parent="1" vertex="1">
          <mxGeometry x="165" y="1525" width="90" height="90" as="geometry" />
        </mxCell>
        <mxCell id="4fs_IT_UTH7WoIQsUZHY-89" value="" style="endArrow=classic;html=1;rounded=0;entryX=0;entryY=0.5;entryDx=0;entryDy=0;" parent="1" edge="1">
          <mxGeometry width="50" height="50" relative="1" as="geometry">
            <mxPoint x="105" y="1525" as="sourcePoint" />
            <mxPoint x="165" y="1565" as="targetPoint" />
          </mxGeometry>
        </mxCell>
        <mxCell id="4fs_IT_UTH7WoIQsUZHY-93" style="edgeStyle=orthogonalEdgeStyle;rounded=0;orthogonalLoop=1;jettySize=auto;html=1;entryX=0;entryY=0.5;entryDx=0;entryDy=0;" parent="1" source="4fs_IT_UTH7WoIQsUZHY-90" target="4fs_IT_UTH7WoIQsUZHY-92" edge="1">
          <mxGeometry relative="1" as="geometry" />
        </mxCell>
        <mxCell id="4fs_IT_UTH7WoIQsUZHY-90" value="Ordena veículos por preço" style="whiteSpace=wrap;html=1;aspect=fixed;fillColor=#dae8fc;strokeColor=#6c8ebf;" parent="1" vertex="1">
          <mxGeometry x="320" y="1525" width="90" height="90" as="geometry" />
        </mxCell>
        <mxCell id="4fs_IT_UTH7WoIQsUZHY-95" style="edgeStyle=orthogonalEdgeStyle;rounded=0;orthogonalLoop=1;jettySize=auto;html=1;entryX=0;entryY=0.5;entryDx=0;entryDy=0;" parent="1" source="4fs_IT_UTH7WoIQsUZHY-92" target="4fs_IT_UTH7WoIQsUZHY-94" edge="1">
          <mxGeometry relative="1" as="geometry" />
        </mxCell>
        <mxCell id="4fs_IT_UTH7WoIQsUZHY-92" value="Veículos Ordenados" style="whiteSpace=wrap;html=1;aspect=fixed;fillColor=#ffe6cc;strokeColor=#d79b00;" parent="1" vertex="1">
          <mxGeometry x="470" y="1525" width="90" height="90" as="geometry" />
        </mxCell>
        <mxCell id="4fs_IT_UTH7WoIQsUZHY-97" style="edgeStyle=orthogonalEdgeStyle;rounded=0;orthogonalLoop=1;jettySize=auto;html=1;entryX=0;entryY=0.5;entryDx=0;entryDy=0;" parent="1" source="4fs_IT_UTH7WoIQsUZHY-94" target="4fs_IT_UTH7WoIQsUZHY-96" edge="1">
          <mxGeometry relative="1" as="geometry" />
        </mxCell>
        <mxCell id="4fs_IT_UTH7WoIQsUZHY-94" value="Exibir lista de veículos à venda" style="whiteSpace=wrap;html=1;aspect=fixed;fillColor=#dae8fc;strokeColor=#6c8ebf;" parent="1" vertex="1">
          <mxGeometry x="610" y="1525" width="90" height="90" as="geometry" />
        </mxCell>
        <mxCell id="4fs_IT_UTH7WoIQsUZHY-96" value="Lista de veículos a venda exibida" style="whiteSpace=wrap;html=1;aspect=fixed;fillColor=#ffe6cc;strokeColor=#d79b00;" parent="1" vertex="1">
          <mxGeometry x="750" y="1525" width="90" height="90" as="geometry" />
        </mxCell>
        <mxCell id="4fs_IT_UTH7WoIQsUZHY-99" value="&lt;b&gt;&lt;font style=&quot;font-size: 16px;&quot;&gt;Listagem de veículos a venda&lt;/font&gt;&lt;/b&gt;" style="text;html=1;align=center;verticalAlign=middle;whiteSpace=wrap;rounded=0;" parent="1" vertex="1">
          <mxGeometry x="10" y="1420" width="235" height="50" as="geometry" />
        </mxCell>
        <mxCell id="4fs_IT_UTH7WoIQsUZHY-100" value="" style="rounded=0;whiteSpace=wrap;html=1;fillColor=default;" parent="1" vertex="1">
          <mxGeometry y="1720" width="1240" height="280" as="geometry" />
        </mxCell>
        <mxCell id="4fs_IT_UTH7WoIQsUZHY-101" value="Usuário" style="whiteSpace=wrap;html=1;aspect=fixed;sketch=1;curveFitting=1;jiggle=2;fillColor=#d5e8d4;strokeColor=#82b366;" parent="1" vertex="1">
          <mxGeometry x="5" y="1785" width="100" height="100" as="geometry" />
        </mxCell>
        <mxCell id="4fs_IT_UTH7WoIQsUZHY-102" style="edgeStyle=orthogonalEdgeStyle;rounded=0;orthogonalLoop=1;jettySize=auto;html=1;entryX=0;entryY=0.5;entryDx=0;entryDy=0;" parent="1" source="4fs_IT_UTH7WoIQsUZHY-103" target="4fs_IT_UTH7WoIQsUZHY-106" edge="1">
          <mxGeometry relative="1" as="geometry" />
        </mxCell>
        <mxCell id="4fs_IT_UTH7WoIQsUZHY-103" value="Solicitação de listagem de veículos vendidos" style="whiteSpace=wrap;html=1;aspect=fixed;fillColor=#ffe6cc;strokeColor=#d79b00;" parent="1" vertex="1">
          <mxGeometry x="165" y="1835" width="90" height="90" as="geometry" />
        </mxCell>
        <mxCell id="4fs_IT_UTH7WoIQsUZHY-104" value="" style="endArrow=classic;html=1;rounded=0;entryX=0;entryY=0.5;entryDx=0;entryDy=0;" parent="1" edge="1">
          <mxGeometry width="50" height="50" relative="1" as="geometry">
            <mxPoint x="105" y="1835" as="sourcePoint" />
            <mxPoint x="165" y="1875" as="targetPoint" />
          </mxGeometry>
        </mxCell>
        <mxCell id="4fs_IT_UTH7WoIQsUZHY-105" style="edgeStyle=orthogonalEdgeStyle;rounded=0;orthogonalLoop=1;jettySize=auto;html=1;entryX=0;entryY=0.5;entryDx=0;entryDy=0;" parent="1" source="4fs_IT_UTH7WoIQsUZHY-106" target="4fs_IT_UTH7WoIQsUZHY-108" edge="1">
          <mxGeometry relative="1" as="geometry" />
        </mxCell>
        <mxCell id="4fs_IT_UTH7WoIQsUZHY-106" value="Ordena veículos vendidos por preço" style="whiteSpace=wrap;html=1;aspect=fixed;fillColor=#dae8fc;strokeColor=#6c8ebf;" parent="1" vertex="1">
          <mxGeometry x="320" y="1835" width="90" height="90" as="geometry" />
        </mxCell>
        <mxCell id="4fs_IT_UTH7WoIQsUZHY-107" style="edgeStyle=orthogonalEdgeStyle;rounded=0;orthogonalLoop=1;jettySize=auto;html=1;entryX=0;entryY=0.5;entryDx=0;entryDy=0;" parent="1" source="4fs_IT_UTH7WoIQsUZHY-108" target="4fs_IT_UTH7WoIQsUZHY-110" edge="1">
          <mxGeometry relative="1" as="geometry" />
        </mxCell>
        <mxCell id="4fs_IT_UTH7WoIQsUZHY-108" value="Veículos vendidos ordenados" style="whiteSpace=wrap;html=1;aspect=fixed;fillColor=#ffe6cc;strokeColor=#d79b00;" parent="1" vertex="1">
          <mxGeometry x="470" y="1835" width="90" height="90" as="geometry" />
        </mxCell>
        <mxCell id="4fs_IT_UTH7WoIQsUZHY-109" style="edgeStyle=orthogonalEdgeStyle;rounded=0;orthogonalLoop=1;jettySize=auto;html=1;entryX=0;entryY=0.5;entryDx=0;entryDy=0;" parent="1" source="4fs_IT_UTH7WoIQsUZHY-110" target="4fs_IT_UTH7WoIQsUZHY-111" edge="1">
          <mxGeometry relative="1" as="geometry" />
        </mxCell>
        <mxCell id="4fs_IT_UTH7WoIQsUZHY-110" value="Exibir lista de veículos vendidos" style="whiteSpace=wrap;html=1;aspect=fixed;fillColor=#dae8fc;strokeColor=#6c8ebf;" parent="1" vertex="1">
          <mxGeometry x="610" y="1835" width="90" height="90" as="geometry" />
        </mxCell>
        <mxCell id="4fs_IT_UTH7WoIQsUZHY-111" value="Lista de veículos vendidos exibida" style="whiteSpace=wrap;html=1;aspect=fixed;fillColor=#ffe6cc;strokeColor=#d79b00;" parent="1" vertex="1">
          <mxGeometry x="750" y="1835" width="90" height="90" as="geometry" />
        </mxCell>
        <mxCell id="4fs_IT_UTH7WoIQsUZHY-112" value="&lt;b&gt;&lt;font style=&quot;font-size: 16px;&quot;&gt;Listagem de veículos vendidos&lt;/font&gt;&lt;/b&gt;" style="text;html=1;align=center;verticalAlign=middle;whiteSpace=wrap;rounded=0;" parent="1" vertex="1">
          <mxGeometry x="10" y="1729" width="270" height="50" as="geometry" />
        </mxCell>
        <mxCell id="4fs_IT_UTH7WoIQsUZHY-113" value="Usuário" style="whiteSpace=wrap;html=1;aspect=fixed;sketch=1;curveFitting=1;jiggle=2;fillColor=#d5e8d4;strokeColor=#82b366;" parent="1" vertex="1">
          <mxGeometry x="5" y="2075" width="100" height="100" as="geometry" />
        </mxCell>
        <mxCell id="4fs_IT_UTH7WoIQsUZHY-114" value="" style="endArrow=classic;html=1;rounded=0;entryX=0;entryY=0.5;entryDx=0;entryDy=0;" parent="1" edge="1">
          <mxGeometry width="50" height="50" relative="1" as="geometry">
            <mxPoint x="110" y="2125" as="sourcePoint" />
            <mxPoint x="170" y="2165" as="targetPoint" />
          </mxGeometry>
        </mxCell>
        <mxCell id="4fs_IT_UTH7WoIQsUZHY-117" style="edgeStyle=orthogonalEdgeStyle;rounded=0;orthogonalLoop=1;jettySize=auto;html=1;entryX=0;entryY=0.5;entryDx=0;entryDy=0;" parent="1" source="4fs_IT_UTH7WoIQsUZHY-115" target="4fs_IT_UTH7WoIQsUZHY-116" edge="1">
          <mxGeometry relative="1" as="geometry" />
        </mxCell>
        <mxCell id="4fs_IT_UTH7WoIQsUZHY-115" value="Preencher informações do comprador" style="whiteSpace=wrap;html=1;aspect=fixed;fillColor=#dae8fc;strokeColor=#6c8ebf;" parent="1" vertex="1">
          <mxGeometry x="170" y="2125" width="90" height="90" as="geometry" />
        </mxCell>
        <mxCell id="4fs_IT_UTH7WoIQsUZHY-133" style="edgeStyle=orthogonalEdgeStyle;rounded=0;orthogonalLoop=1;jettySize=auto;html=1;entryX=0;entryY=0.5;entryDx=0;entryDy=0;" parent="1" source="4fs_IT_UTH7WoIQsUZHY-116" target="4fs_IT_UTH7WoIQsUZHY-118" edge="1">
          <mxGeometry relative="1" as="geometry" />
        </mxCell>
        <mxCell id="4fs_IT_UTH7WoIQsUZHY-116" value="Informações do comprador preenchidas" style="whiteSpace=wrap;html=1;aspect=fixed;fillColor=#ffe6cc;strokeColor=#d79b00;" parent="1" vertex="1">
          <mxGeometry x="315" y="2125" width="90" height="90" as="geometry" />
        </mxCell>
        <mxCell id="4fs_IT_UTH7WoIQsUZHY-121" style="edgeStyle=orthogonalEdgeStyle;rounded=0;orthogonalLoop=1;jettySize=auto;html=1;entryX=0;entryY=0.5;entryDx=0;entryDy=0;" parent="1" source="4fs_IT_UTH7WoIQsUZHY-118" target="4fs_IT_UTH7WoIQsUZHY-119" edge="1">
          <mxGeometry relative="1" as="geometry" />
        </mxCell>
        <mxCell id="4fs_IT_UTH7WoIQsUZHY-123" style="edgeStyle=orthogonalEdgeStyle;rounded=0;orthogonalLoop=1;jettySize=auto;html=1;entryX=0;entryY=0.5;entryDx=0;entryDy=0;" parent="1" source="4fs_IT_UTH7WoIQsUZHY-118" target="4fs_IT_UTH7WoIQsUZHY-120" edge="1">
          <mxGeometry relative="1" as="geometry" />
        </mxCell>
        <mxCell id="4fs_IT_UTH7WoIQsUZHY-118" value="Validar informações do comprador" style="whiteSpace=wrap;html=1;aspect=fixed;fillColor=#dae8fc;strokeColor=#6c8ebf;" parent="1" vertex="1">
          <mxGeometry x="450" y="2125" width="90" height="90" as="geometry" />
        </mxCell>
        <mxCell id="4fs_IT_UTH7WoIQsUZHY-131" style="edgeStyle=orthogonalEdgeStyle;rounded=0;orthogonalLoop=1;jettySize=auto;html=1;entryX=0;entryY=0.5;entryDx=0;entryDy=0;" parent="1" source="4fs_IT_UTH7WoIQsUZHY-119" target="4fs_IT_UTH7WoIQsUZHY-127" edge="1">
          <mxGeometry relative="1" as="geometry" />
        </mxCell>
        <mxCell id="4fs_IT_UTH7WoIQsUZHY-119" value="Informações válidas" style="whiteSpace=wrap;html=1;aspect=fixed;fillColor=#e1d5e7;strokeColor=#9673a6;" parent="1" vertex="1">
          <mxGeometry x="575" y="2062.5" width="90" height="90" as="geometry" />
        </mxCell>
        <mxCell id="4fs_IT_UTH7WoIQsUZHY-132" style="edgeStyle=orthogonalEdgeStyle;rounded=0;orthogonalLoop=1;jettySize=auto;html=1;entryX=0;entryY=0.5;entryDx=0;entryDy=0;" parent="1" source="4fs_IT_UTH7WoIQsUZHY-120" target="4fs_IT_UTH7WoIQsUZHY-129" edge="1">
          <mxGeometry relative="1" as="geometry" />
        </mxCell>
        <mxCell id="4fs_IT_UTH7WoIQsUZHY-120" value="informações inválidas" style="whiteSpace=wrap;html=1;aspect=fixed;fillColor=#e1d5e7;strokeColor=#9673a6;" parent="1" vertex="1">
          <mxGeometry x="580" y="2195" width="90" height="90" as="geometry" />
        </mxCell>
        <mxCell id="4fs_IT_UTH7WoIQsUZHY-126" style="edgeStyle=orthogonalEdgeStyle;rounded=0;orthogonalLoop=1;jettySize=auto;html=1;entryX=0;entryY=0.5;entryDx=0;entryDy=0;" parent="1" source="4fs_IT_UTH7WoIQsUZHY-127" target="4fs_IT_UTH7WoIQsUZHY-128" edge="1">
          <mxGeometry relative="1" as="geometry" />
        </mxCell>
        <mxCell id="4fs_IT_UTH7WoIQsUZHY-127" value="Armazenar Informações do comprador" style="whiteSpace=wrap;html=1;aspect=fixed;fillColor=#dae8fc;strokeColor=#6c8ebf;" parent="1" vertex="1">
          <mxGeometry x="715" y="2060" width="95" height="95" as="geometry" />
        </mxCell>
        <mxCell id="4fs_IT_UTH7WoIQsUZHY-128" value="Informações do comprador armazenada" style="whiteSpace=wrap;html=1;aspect=fixed;fillColor=#ffe6cc;strokeColor=#d79b00;" parent="1" vertex="1">
          <mxGeometry x="865" y="2062.5" width="90" height="90" as="geometry" />
        </mxCell>
        <mxCell id="4fs_IT_UTH7WoIQsUZHY-129" value="Falha ao armazenar informações do comprador" style="whiteSpace=wrap;html=1;aspect=fixed;fillColor=#ffe6cc;strokeColor=#d79b00;" parent="1" vertex="1">
          <mxGeometry x="715" y="2195" width="90" height="90" as="geometry" />
        </mxCell>
        <mxCell id="4fs_IT_UTH7WoIQsUZHY-135" value="&lt;b&gt;&lt;font style=&quot;font-size: 16px;&quot;&gt;Cadastro de compradores&lt;/font&gt;&lt;/b&gt;" style="text;html=1;align=center;verticalAlign=middle;whiteSpace=wrap;rounded=0;" parent="1" vertex="1">
          <mxGeometry x="10" y="2025" width="215" height="50" as="geometry" />
        </mxCell>
      </root>
    </mxGraphModel>
  </diagram>
</mxfile>
